<svg width="100%" viewBox="100 170 480 340" xmlns="http://www.w3.org/2000/svg">
<!-- LEFT BRACKET < -->
<path fill="none" stroke="#5B8DEF" stroke-width="28" stroke-linecap="round" stroke-linejoin="round" d="M248 260 L190 340 L248 420"></path>

<!-- RIGHT BRACKET > -->
<path fill="none" stroke="#5B8DEF" stroke-width="28" stroke-linecap="round" stroke-linejoin="round" d="M432 260 L490 340 L432 420"></path>

<!-- QUESTION MARK -->
<path fill="#5B8DEF" d="
  M340 268
  C340 268 382 268 382 308
  C382 340 362 352 350 368
  L350 392
  L330 392
  L330 364
  C330 364 348 350 358 334
  C368 318 362 288 340 288
  C318 288 312 308 312 308
  L292 304
  C292 304 298 268 340 268 Z
"></path>
<circle fill="#5B8DEF" cx="340" cy="416" r="13"></circle>
</svg>
